<svg width="506" height="506" viewBox="0 0 506 506" fill="none" xmlns="http://www.w3.org/2000/svg">
<path d="M247.086 3.49065C250.26 0.00781857 255.74 0.00781857 258.914 3.49065L302.552 51.3872C304.657 53.6977 307.915 54.5706 310.893 53.6222L372.633 33.9618C377.123 32.5321 381.869 35.2726 382.876 39.8754L396.72 103.174C397.388 106.228 399.772 108.613 402.826 109.28L466.125 123.124C470.727 124.131 473.468 128.877 472.038 133.367L452.378 195.107C451.429 198.085 452.302 201.343 454.613 203.448L502.509 247.086C505.992 250.26 505.992 255.74 502.509 258.914L454.613 302.552C452.302 304.657 451.429 307.915 452.378 310.893L472.038 372.633C473.468 377.123 470.727 381.869 466.125 382.876L402.826 396.72C399.772 397.388 397.388 399.772 396.72 402.826L382.876 466.125C381.869 470.727 377.123 473.468 372.633 472.038L310.893 452.378C307.915 451.429 304.657 452.302 302.552 454.613L258.914 502.509C255.74 505.992 250.26 505.992 247.086 502.509L203.448 454.613C201.343 452.302 198.085 451.429 195.107 452.378L133.367 472.038C128.877 473.468 124.131 470.727 123.124 466.125L109.28 402.826C108.613 399.772 106.228 397.388 103.174 396.72L39.8754 382.876C35.2726 381.869 32.5321 377.123 33.9618 372.633L53.6222 310.893C54.5706 307.915 53.6977 304.657 51.3872 302.552L3.49065 258.914C0.00781857 255.74 0.00781857 250.26 3.49065 247.086L51.3872 203.448C53.6977 201.343 54.5706 198.085 53.6222 195.107L33.9618 133.367C32.5321 128.877 35.2726 124.131 39.8754 123.124L103.174 109.28C106.228 108.613 108.613 106.228 109.28 103.174L123.124 39.8754C124.131 35.2726 128.877 32.5321 133.367 33.9618L195.107 53.6222C198.085 54.5706 201.343 53.6977 203.448 51.3872L247.086 3.49065Z" fill="black"/>
</svg>
